Coordinates
version=1
nRows=27
nColumns=12
inDegrees=yes

Units are S.I. units (second, meters, Newtons, ...)
Angles are in degrees

endheader
time	SC_y	SC_z	SC_x	AC_y	AC_z	AC_x	GH_y	GH_z	GH_yy	EL_x	PS_y
       0.0              -17.52         -4.381           52.6          69.65          1.196          18.66          139.6          57.77         -169.7          14.39          66.33
   0.02171              -17.52         -4.379          52.59          69.65          1.195          18.66          139.6          57.77         -169.7           14.4          66.34
   0.04341              -17.52         -4.378          52.59          69.65          1.194          18.66          139.5          57.76         -169.6          14.41          66.35
   0.06512              -17.52         -4.376          52.58          69.65          1.194          18.65          139.5          57.76         -169.6          14.42          66.36
   0.08683              -17.52         -4.374          52.58          69.64          1.193          18.65          139.5          57.75         -169.5          14.44          66.37
    0.1085              -17.52         -4.372          52.57          69.64          1.193          18.65          139.5          57.74         -169.5          14.45          66.38
    0.1302              -17.52          -4.37          52.56          69.64          1.192          18.64          139.5          57.74         -169.4          14.46          66.39
    0.1519              -17.52         -4.368          52.55          69.63          1.191          18.64          139.5          57.73         -169.4          14.48           66.4
    0.1737              -17.53         -4.365          52.54          69.63           1.19          18.63          139.4          57.72         -169.3           14.5          66.42
    0.1954              -17.53         -4.363          52.53          69.62          1.189          18.63          139.4          57.71         -169.2          14.52          66.43
    0.2171              -17.53          -4.36          52.52          69.62          1.188          18.62          139.4           57.7         -169.1          14.53          66.45
    0.2388              -17.53         -4.357          52.51          69.61          1.187          18.61          139.4          57.69         -169.1          14.56          66.46
    0.2605              -17.53         -4.354           52.5          69.61          1.186          18.61          139.4          57.68         -169.0          14.58          66.48
    0.2822              -17.53          -4.35          52.49           69.6          1.185           18.6          139.3          57.67         -168.9           14.6           66.5
    0.3039              -17.54         -4.346          52.47          69.59          1.184          18.59          139.3          57.66         -168.8          14.63          66.52
    0.3256              -17.54         -4.342          52.46          69.59          1.182          18.59          139.3          57.65         -168.7          14.66          66.54
    0.3473              -17.54         -4.338          52.44          69.58          1.181          18.58          139.2          57.63         -168.5          14.69          66.56
     0.369              -17.55         -4.333          52.42          69.57          1.179          18.57          139.2          57.62         -168.4          14.72          66.59
    0.3907              -17.55         -4.328           52.4          69.56          1.177          18.56          139.1           57.6         -168.3          14.76          66.62
    0.4124              -17.55         -4.322          52.38          69.55          1.175          18.54          139.1          57.58         -168.1           14.8          66.65
    0.4341              -17.56         -4.316          52.36          69.54          1.173          18.53          139.0          57.56         -167.9          14.85          66.68
    0.4558              -17.56         -4.309          52.33          69.53          1.171          18.52          139.0          57.54         -167.7           14.9          66.72
    0.4775              -17.57         -4.301           52.3          69.51          1.168           18.5          138.9          57.51         -167.5          14.95          66.76
    0.4993              -17.57         -4.293          52.27           69.5          1.165          18.48          138.8          57.48         -167.3          15.01          66.81
     0.521              -17.58         -4.283          52.23          69.48          1.162          18.46          138.8          57.45         -167.0          15.08          66.86
    0.5427              -17.58         -4.273          52.19          69.46          1.158          18.44          138.7          57.42         -166.7          15.15          66.91
    0.5644              -17.59         -4.261          52.15          69.44          1.154          18.42          138.6          57.38         -166.4          15.24          66.98
